<svg width="30" height="31" viewBox="0 0 30 31" fill="none" xmlns="http://www.w3.org/2000/svg">
<g id="Frame" clip-path="url(#clip0_122_2592)">
<g id="Group">
<path id="Vector" d="M25.0352 12.1795C25.1377 12.4693 25.3272 12.7204 25.5778 12.8984C25.8284 13.0764 26.1279 13.1726 26.4353 13.1739H28.424C28.8196 13.1739 29.1989 13.0167 29.4787 12.737C29.7584 12.4573 29.9155 12.0779 29.9155 11.6823V2.23593C29.9155 1.84034 29.7584 1.46096 29.4787 1.18125C29.1989 0.901529 28.8196 0.744385 28.424 0.744385L26.4353 0.744385C26.1279 0.745659 25.8284 0.841874 25.5778 1.01987C25.3272 1.19786 25.1377 1.44893 25.0352 1.73874H14.7162C14.0743 1.73823 13.4447 1.91474 12.8966 2.24885L4.87008 7.13961C4.55736 7.32827 4.31508 7.61421 4.18033 7.95366C4.04559 8.29311 4.02579 8.66737 4.12399 9.01914C4.22218 9.37091 4.43295 9.68081 4.72402 9.9014C5.0151 10.122 5.37045 10.2411 5.73567 10.2405C6.1876 10.2405 6.38797 10.0914 7.68262 9.67971C6.61328 10.9873 5.91458 12.558 5.65948 14.2277C5.40437 15.8975 5.60221 17.6051 6.23235 19.1724C5.81094 19.1361 5.38774 19.1253 4.96504 19.14C4.86258 18.8502 4.67308 18.5992 4.42246 18.4212C4.17185 18.2432 3.87236 18.147 3.56498 18.1457H1.57626C1.18068 18.1457 0.801297 18.3028 0.521579 18.5826C0.241861 18.8623 0.0847168 19.2416 0.0847168 19.6372L0.0847168 29.0837C0.0847168 29.4792 0.241861 29.8586 0.521579 30.1383C0.801297 30.418 1.18068 30.5752 1.57626 30.5752H3.56498C3.87236 30.5739 4.17185 30.4777 4.42246 30.2997C4.67308 30.1217 4.86258 29.8706 4.96504 29.5808H15.2835C15.9254 29.5813 16.5551 29.4048 17.1032 29.0707L25.1297 24.18C25.4824 23.9678 25.7444 23.6329 25.8654 23.2395C25.9864 22.8461 25.9579 22.4219 25.7854 22.0482C25.6128 21.6745 25.3084 21.3777 24.9305 21.2146C24.5526 21.0515 24.1278 21.0337 23.7376 21.1646L22.3186 21.6389C23.3877 20.3313 24.0862 18.7607 24.3412 17.091C24.5962 15.4213 24.3984 13.7138 23.7684 12.1467C24.1896 12.1829 24.6127 12.1938 25.0352 12.1795ZM26.4353 1.73874H28.424C28.5558 1.73874 28.6823 1.79113 28.7755 1.88437C28.8688 1.9776 28.9212 2.10406 28.9212 2.23593V11.6823C28.9212 11.8142 28.8688 11.9407 28.7755 12.0339C28.6823 12.1271 28.5558 12.1795 28.424 12.1795H26.4353C26.3034 12.1795 26.1769 12.1271 26.0837 12.0339C25.9905 11.9407 25.9381 11.8142 25.9381 11.6823V2.23593C25.9381 2.10406 25.9905 1.9776 26.0837 1.88437C26.1769 1.79113 26.3034 1.73874 26.4353 1.73874ZM5.94796 9.21186C5.79017 9.26344 5.61893 9.25526 5.46678 9.18887C5.31462 9.12249 5.19215 9.00253 5.12264 8.85178C5.05312 8.70103 5.0414 8.52999 5.08971 8.37117C5.13801 8.21235 5.24298 8.0768 5.38466 7.99029L13.4146 3.09754C13.8066 2.85851 14.2571 2.73239 14.7162 2.73311H24.9437V11.1852H24.2869C21.994 11.1852 21.4829 9.19645 19.1063 9.19645H16.7248C15.6499 9.19645 14.5636 8.04349 15.2219 7.20773H18.808C19.7945 7.19625 20.751 6.86708 21.5356 6.26905C21.6453 6.1958 21.7214 6.08197 21.7472 5.9526C21.7729 5.82323 21.7463 5.68892 21.673 5.57921C21.5998 5.4695 21.4859 5.39339 21.3566 5.36761C21.2272 5.34183 21.0929 5.36849 20.9832 5.44174C20.3625 5.93079 19.5981 6.20195 18.808 6.21337H15.1637C15.0026 6.21934 14.8429 6.24471 14.6879 6.28894L5.94796 9.21186ZM3.56498 29.5808H1.57626C1.4444 29.5808 1.31794 29.5285 1.2247 29.4352C1.13146 29.342 1.07908 29.2155 1.07908 29.0837V19.6372C1.07908 19.5054 1.13146 19.3789 1.2247 19.2857C1.31794 19.1924 1.4444 19.14 1.57626 19.14H3.56498C3.69684 19.14 3.8233 19.1924 3.91654 19.2857C4.00978 19.3789 4.06216 19.5054 4.06216 19.6372V29.0837C4.06216 29.2155 4.00978 29.342 3.91654 29.4352C3.8233 29.5285 3.69684 29.5808 3.56498 29.5808ZM24.0518 22.1077C24.2096 22.0561 24.3808 22.0643 24.533 22.1307C24.6851 22.1971 24.8076 22.317 24.8771 22.4678C24.9466 22.6185 24.9583 22.7896 24.91 22.9484C24.8617 23.1072 24.7568 23.2428 24.6151 23.3293L16.5856 28.222C16.1934 28.461 15.7428 28.5871 15.2835 28.5865H5.05652V20.1344H5.7128C8.00529 20.1344 8.5159 22.1231 10.8934 22.1231H13.2749C14.3478 22.1231 15.4361 23.2761 14.7779 24.1118H11.1917C10.2053 24.1231 9.24887 24.4525 8.46469 25.051C8.35851 25.1257 8.28573 25.2389 8.26189 25.3664C8.23804 25.494 8.26503 25.6258 8.33708 25.7338C8.40913 25.8417 8.52053 25.9172 8.64749 25.9441C8.77445 25.9711 8.9069 25.9473 9.01656 25.8778C9.63723 25.3888 10.4016 25.1176 11.1917 25.1062H14.8361C14.9971 25.1002 15.1569 25.0748 15.3119 25.0306L24.0518 22.1077ZM20.1365 22.3687L15.9721 23.7608C16.1148 22.5676 14.9091 21.1258 13.2749 21.1258H10.8934C9.46601 21.1258 8.64765 19.9679 7.46536 19.4851C6.56773 17.7258 6.31613 15.7073 6.75445 13.7815C7.19276 11.8557 8.29316 10.1449 9.86375 8.94736L14.0276 7.55526C13.8849 8.74849 15.0911 10.1903 16.7248 10.1903H19.1063C20.578 10.1903 21.2546 11.309 22.5369 11.831C23.4344 13.5905 23.6857 15.6092 23.247 17.535C22.8084 19.4609 21.7075 21.1716 20.1365 22.3687Z" fill="#FF4800"/>
<path id="Vector_2" d="M13.2603 8.90445C13.2184 8.77946 13.1285 8.67624 13.0104 8.6175C12.8924 8.55876 12.7559 8.54931 12.6309 8.59123C11.6574 8.9176 10.7617 9.44147 10.0001 10.13C9.23846 10.8186 8.62721 11.657 8.20462 12.5928C7.78204 13.5285 7.55724 14.5415 7.54429 15.5681C7.53135 16.5948 7.73054 17.6131 8.1294 18.5592C8.18096 18.6806 8.27862 18.7765 8.4009 18.8259C8.52319 18.8752 8.66007 18.874 8.78145 18.8225C8.90283 18.7709 8.99875 18.6732 9.04812 18.5509C9.09749 18.4287 9.09626 18.2918 9.04471 18.1704C8.69943 17.3506 8.52711 16.4683 8.53853 15.5787C8.54995 14.6892 8.74488 13.8117 9.1111 13.0009C9.47732 12.1902 10.0069 11.4639 10.6668 10.8673C11.3267 10.2707 12.1027 9.81676 12.9461 9.53388C13.0081 9.51322 13.0654 9.48054 13.1147 9.43771C13.164 9.39488 13.2045 9.34275 13.2336 9.28429C13.2628 9.22584 13.2802 9.1622 13.2848 9.09703C13.2894 9.03185 13.281 8.96641 13.2603 8.90445ZM20.9561 13.1499C21.3014 13.9697 21.4737 14.852 21.4623 15.7415C21.4509 16.631 21.256 17.5086 20.8898 18.3193C20.5235 19.13 19.9939 19.8564 19.334 20.453C18.6741 21.0496 17.8982 21.5035 17.0548 21.7864C16.9295 21.8283 16.826 21.9183 16.7671 22.0365C16.7082 22.1548 16.6986 22.2915 16.7406 22.4168C16.7825 22.5421 16.8725 22.6456 16.9907 22.7045C17.1089 22.7634 17.2457 22.773 17.371 22.731C18.3446 22.4046 19.2404 21.8806 20.0021 21.1918C20.7638 20.5031 21.3751 19.6645 21.7976 18.7285C22.2201 17.7925 22.4447 16.7793 22.4574 15.7525C22.4702 14.7256 22.2707 13.7072 21.8715 12.7611C21.8199 12.6397 21.7222 12.5438 21.6 12.4944C21.4777 12.445 21.3408 12.4463 21.2194 12.4978C21.098 12.5494 21.0021 12.647 20.9527 12.7693C20.9034 12.8916 20.9046 13.0285 20.9561 13.1499ZM17.9835 17.4003C17.9835 16.2732 16.925 15.3683 15.4976 15.1953V12.7233C16.3428 12.866 16.9891 13.3537 16.9891 13.92C16.9891 14.0519 17.0415 14.1783 17.1348 14.2716C17.228 14.3648 17.3545 14.4172 17.4863 14.4172C17.6182 14.4172 17.7446 14.3648 17.8379 14.2716C17.9311 14.1783 17.9835 14.0519 17.9835 13.92C17.9835 12.7929 16.925 11.888 15.4976 11.715V11.1855C15.4976 11.0537 15.4452 10.9272 15.352 10.834C15.2587 10.7407 15.1323 10.6883 15.0004 10.6883C14.8686 10.6883 14.7421 10.7407 14.6489 10.834C14.5556 10.9272 14.5032 11.0537 14.5032 11.1855V11.715C13.0758 11.888 12.0173 12.7929 12.0173 13.92C12.0173 15.0471 13.0758 15.952 14.5032 16.125V18.597C13.658 18.4543 13.0117 17.9666 13.0117 17.4003C13.0117 17.2684 12.9593 17.1419 12.8661 17.0487C12.7728 16.9555 12.6464 16.9031 12.5145 16.9031C12.3827 16.9031 12.2562 16.9555 12.163 17.0487C12.0697 17.1419 12.0173 17.2684 12.0173 17.4003C12.0173 18.5274 13.0758 19.4322 14.5032 19.6053V20.1348C14.5032 20.2666 14.5556 20.3931 14.6489 20.4863C14.7421 20.5796 14.8686 20.6319 15.0004 20.6319C15.1323 20.6319 15.2587 20.5796 15.352 20.4863C15.4452 20.3931 15.4976 20.2666 15.4976 20.1348V19.6053C16.925 19.4322 17.9835 18.5274 17.9835 17.4003ZM13.0117 13.92C13.0117 13.3537 13.658 12.866 14.5032 12.7233V15.1167C13.658 14.974 13.0117 14.4863 13.0117 13.92ZM15.4976 18.597V16.2036C16.3428 16.3462 16.9891 16.834 16.9891 17.4003C16.9891 17.9666 16.3428 18.4543 15.4976 18.597Z" fill="#FF4800"/>
</g>
</g>
<defs>
<clipPath id="clip0_122_2592">
<rect width="29.8308" height="29.8308" fill="white" transform="translate(0.0847168 0.744385)"/>
</clipPath>
</defs>
</svg>
